<mxfile host="app.diagrams.net" agent="Mozilla/5.0 (Windows NT 10.0; Win64; x64) AppleWebKit/537.36 (KHTML, like Gecko) Chrome/135.0.0.0 Safari/537.36" version="26.0.6">
  <diagram name="Page-1" id="0wrUglqg-dA7pXYp0nSl">
    <mxGraphModel dx="2284" dy="746" grid="1" gridSize="10" guides="1" tooltips="1" connect="1" arrows="1" fold="1" page="1" pageScale="1" pageWidth="850" pageHeight="1100" math="0" shadow="0">
      <root>
        <mxCell id="0" />
        <mxCell id="1" parent="0" />
        <mxCell id="RDxLEwMojuRbnxQG7RyW-2" value="passenger" style="whiteSpace=wrap;html=1;align=center;" vertex="1" parent="1">
          <mxGeometry x="160" y="150" width="100" height="40" as="geometry" />
        </mxCell>
        <mxCell id="RDxLEwMojuRbnxQG7RyW-4" value="name" style="ellipse;whiteSpace=wrap;html=1;align=center;" vertex="1" parent="1">
          <mxGeometry x="90" y="50" width="100" height="40" as="geometry" />
        </mxCell>
        <mxCell id="RDxLEwMojuRbnxQG7RyW-5" value="email" style="ellipse;whiteSpace=wrap;html=1;align=center;" vertex="1" parent="1">
          <mxGeometry x="30" y="100" width="100" height="40" as="geometry" />
        </mxCell>
        <mxCell id="RDxLEwMojuRbnxQG7RyW-6" value="phone no" style="ellipse;whiteSpace=wrap;html=1;align=center;" vertex="1" parent="1">
          <mxGeometry x="20" y="150" width="100" height="40" as="geometry" />
        </mxCell>
        <mxCell id="RDxLEwMojuRbnxQG7RyW-7" value="books from&amp;nbsp;" style="shape=rhombus;perimeter=rhombusPerimeter;whiteSpace=wrap;html=1;align=center;" vertex="1" parent="1">
          <mxGeometry x="360" y="140" width="120" height="60" as="geometry" />
        </mxCell>
        <mxCell id="RDxLEwMojuRbnxQG7RyW-11" value="" style="endArrow=none;html=1;rounded=0;exitX=1;exitY=0.5;exitDx=0;exitDy=0;entryX=0;entryY=0.5;entryDx=0;entryDy=0;" edge="1" parent="1" source="RDxLEwMojuRbnxQG7RyW-6" target="RDxLEwMojuRbnxQG7RyW-2">
          <mxGeometry relative="1" as="geometry">
            <mxPoint x="200" y="220" as="sourcePoint" />
            <mxPoint x="360" y="220" as="targetPoint" />
          </mxGeometry>
        </mxCell>
        <mxCell id="RDxLEwMojuRbnxQG7RyW-12" value="" style="endArrow=none;html=1;rounded=0;exitX=1;exitY=0.5;exitDx=0;exitDy=0;entryX=0.5;entryY=0;entryDx=0;entryDy=0;" edge="1" parent="1" source="RDxLEwMojuRbnxQG7RyW-5" target="RDxLEwMojuRbnxQG7RyW-2">
          <mxGeometry relative="1" as="geometry">
            <mxPoint x="190" y="240" as="sourcePoint" />
            <mxPoint x="220" y="200" as="targetPoint" />
          </mxGeometry>
        </mxCell>
        <mxCell id="RDxLEwMojuRbnxQG7RyW-13" value="" style="endArrow=none;html=1;rounded=0;exitX=0.69;exitY=0.95;exitDx=0;exitDy=0;entryX=0.5;entryY=0;entryDx=0;entryDy=0;exitPerimeter=0;" edge="1" parent="1" source="RDxLEwMojuRbnxQG7RyW-4" target="RDxLEwMojuRbnxQG7RyW-2">
          <mxGeometry relative="1" as="geometry">
            <mxPoint x="200" y="250" as="sourcePoint" />
            <mxPoint x="230" y="210" as="targetPoint" />
          </mxGeometry>
        </mxCell>
        <mxCell id="RDxLEwMojuRbnxQG7RyW-14" value="" style="endArrow=none;html=1;rounded=0;exitX=0;exitY=1;exitDx=0;exitDy=0;entryX=0.5;entryY=0;entryDx=0;entryDy=0;" edge="1" parent="1" source="RDxLEwMojuRbnxQG7RyW-75" target="RDxLEwMojuRbnxQG7RyW-2">
          <mxGeometry relative="1" as="geometry">
            <mxPoint x="290" y="80" as="sourcePoint" />
            <mxPoint x="240" y="220" as="targetPoint" />
          </mxGeometry>
        </mxCell>
        <mxCell id="RDxLEwMojuRbnxQG7RyW-16" value="passport no" style="ellipse;whiteSpace=wrap;html=1;align=center;" vertex="1" parent="1">
          <mxGeometry x="210" y="50" width="100" height="40" as="geometry" />
        </mxCell>
        <mxCell id="RDxLEwMojuRbnxQG7RyW-17" value="" style="endArrow=none;html=1;rounded=0;exitX=0.5;exitY=0;exitDx=0;exitDy=0;entryX=0.5;entryY=1;entryDx=0;entryDy=0;" edge="1" parent="1" source="RDxLEwMojuRbnxQG7RyW-2" target="RDxLEwMojuRbnxQG7RyW-16">
          <mxGeometry relative="1" as="geometry">
            <mxPoint x="240" y="120" as="sourcePoint" />
            <mxPoint x="220" y="160" as="targetPoint" />
          </mxGeometry>
        </mxCell>
        <mxCell id="RDxLEwMojuRbnxQG7RyW-18" value="booking" style="whiteSpace=wrap;html=1;align=center;rounded=0;" vertex="1" parent="1">
          <mxGeometry x="570" y="150" width="100" height="40" as="geometry" />
        </mxCell>
        <mxCell id="RDxLEwMojuRbnxQG7RyW-21" value="" style="endArrow=none;html=1;rounded=0;exitX=1;exitY=0.5;exitDx=0;exitDy=0;entryX=0;entryY=0.5;entryDx=0;entryDy=0;startArrow=ERmandOne;startFill=0;" edge="1" parent="1" source="RDxLEwMojuRbnxQG7RyW-2" target="RDxLEwMojuRbnxQG7RyW-7">
          <mxGeometry relative="1" as="geometry">
            <mxPoint x="260" y="230" as="sourcePoint" />
            <mxPoint x="420" y="230" as="targetPoint" />
          </mxGeometry>
        </mxCell>
        <mxCell id="RDxLEwMojuRbnxQG7RyW-23" value="" style="edgeStyle=entityRelationEdgeStyle;fontSize=12;html=1;endArrow=ERoneToMany;rounded=0;exitX=1;exitY=0.5;exitDx=0;exitDy=0;entryX=0;entryY=0.5;entryDx=0;entryDy=0;" edge="1" parent="1" source="RDxLEwMojuRbnxQG7RyW-7" target="RDxLEwMojuRbnxQG7RyW-18">
          <mxGeometry width="100" height="100" relative="1" as="geometry">
            <mxPoint x="510" y="340" as="sourcePoint" />
            <mxPoint x="610" y="240" as="targetPoint" />
          </mxGeometry>
        </mxCell>
        <mxCell id="RDxLEwMojuRbnxQG7RyW-24" value="flights" style="whiteSpace=wrap;html=1;align=center;" vertex="1" parent="1">
          <mxGeometry x="570" y="410" width="100" height="40" as="geometry" />
        </mxCell>
        <mxCell id="RDxLEwMojuRbnxQG7RyW-25" value="can have" style="shape=rhombus;perimeter=rhombusPerimeter;whiteSpace=wrap;html=1;align=center;" vertex="1" parent="1">
          <mxGeometry x="560" y="280" width="120" height="60" as="geometry" />
        </mxCell>
        <mxCell id="RDxLEwMojuRbnxQG7RyW-34" value="" style="endArrow=ERoneToMany;startArrow=none;html=1;rounded=0;entryX=0.5;entryY=1;entryDx=0;entryDy=0;exitX=0.5;exitY=0;exitDx=0;exitDy=0;startFill=0;endFill=0;" edge="1" parent="1" source="RDxLEwMojuRbnxQG7RyW-25" target="RDxLEwMojuRbnxQG7RyW-18">
          <mxGeometry width="50" height="50" relative="1" as="geometry">
            <mxPoint x="550" y="260" as="sourcePoint" />
            <mxPoint x="600" y="210" as="targetPoint" />
          </mxGeometry>
        </mxCell>
        <mxCell id="RDxLEwMojuRbnxQG7RyW-35" value="" style="endArrow=none;startArrow=ERmandOne;html=1;rounded=0;entryX=0.5;entryY=1;entryDx=0;entryDy=0;exitX=0.5;exitY=0;exitDx=0;exitDy=0;startFill=0;endFill=0;" edge="1" parent="1" source="RDxLEwMojuRbnxQG7RyW-24" target="RDxLEwMojuRbnxQG7RyW-25">
          <mxGeometry width="50" height="50" relative="1" as="geometry">
            <mxPoint x="560" y="380" as="sourcePoint" />
            <mxPoint x="610" y="330" as="targetPoint" />
          </mxGeometry>
        </mxCell>
        <mxCell id="RDxLEwMojuRbnxQG7RyW-37" value="" style="endArrow=ERmandOne;html=1;rounded=0;entryX=0;entryY=0.5;entryDx=0;entryDy=0;startArrow=none;startFill=0;endFill=0;exitX=1;exitY=0.5;exitDx=0;exitDy=0;" edge="1" parent="1" source="RDxLEwMojuRbnxQG7RyW-38" target="RDxLEwMojuRbnxQG7RyW-24">
          <mxGeometry relative="1" as="geometry">
            <mxPoint x="440" y="430" as="sourcePoint" />
            <mxPoint x="510" y="430" as="targetPoint" />
          </mxGeometry>
        </mxCell>
        <mxCell id="RDxLEwMojuRbnxQG7RyW-38" value="has a" style="shape=rhombus;perimeter=rhombusPerimeter;whiteSpace=wrap;html=1;align=center;" vertex="1" parent="1">
          <mxGeometry x="320" y="400" width="120" height="60" as="geometry" />
        </mxCell>
        <mxCell id="RDxLEwMojuRbnxQG7RyW-39" value="" style="endArrow=ERmandOne;html=1;rounded=0;startArrow=none;startFill=0;endFill=0;exitX=0;exitY=0.5;exitDx=0;exitDy=0;entryX=1;entryY=0.5;entryDx=0;entryDy=0;" edge="1" parent="1" source="RDxLEwMojuRbnxQG7RyW-38" target="RDxLEwMojuRbnxQG7RyW-40">
          <mxGeometry relative="1" as="geometry">
            <mxPoint x="140" y="440" as="sourcePoint" />
            <mxPoint x="240" y="430" as="targetPoint" />
          </mxGeometry>
        </mxCell>
        <mxCell id="RDxLEwMojuRbnxQG7RyW-40" value="schedule" style="whiteSpace=wrap;html=1;align=center;" vertex="1" parent="1">
          <mxGeometry x="130" y="410" width="100" height="40" as="geometry" />
        </mxCell>
        <mxCell id="RDxLEwMojuRbnxQG7RyW-41" value="airport" style="whiteSpace=wrap;html=1;align=center;" vertex="1" parent="1">
          <mxGeometry x="-100" y="300" width="100" height="40" as="geometry" />
        </mxCell>
        <mxCell id="RDxLEwMojuRbnxQG7RyW-42" value="has a" style="shape=rhombus;perimeter=rhombusPerimeter;whiteSpace=wrap;html=1;align=center;" vertex="1" parent="1">
          <mxGeometry x="120" y="290" width="120" height="60" as="geometry" />
        </mxCell>
        <mxCell id="RDxLEwMojuRbnxQG7RyW-44" value="" style="endArrow=ERoneToMany;startArrow=none;html=1;rounded=0;entryX=0.5;entryY=0;entryDx=0;entryDy=0;exitX=0.5;exitY=1;exitDx=0;exitDy=0;startFill=0;endFill=0;" edge="1" parent="1" source="RDxLEwMojuRbnxQG7RyW-42" target="RDxLEwMojuRbnxQG7RyW-40">
          <mxGeometry width="50" height="50" relative="1" as="geometry">
            <mxPoint x="450" y="350" as="sourcePoint" />
            <mxPoint x="450" y="260" as="targetPoint" />
          </mxGeometry>
        </mxCell>
        <mxCell id="RDxLEwMojuRbnxQG7RyW-45" value="" style="endArrow=ERmandOne;html=1;rounded=0;entryX=1;entryY=0.5;entryDx=0;entryDy=0;startArrow=none;startFill=0;endFill=0;exitX=0;exitY=0.5;exitDx=0;exitDy=0;" edge="1" parent="1" source="RDxLEwMojuRbnxQG7RyW-42" target="RDxLEwMojuRbnxQG7RyW-41">
          <mxGeometry relative="1" as="geometry">
            <mxPoint x="490" y="480" as="sourcePoint" />
            <mxPoint x="580" y="480" as="targetPoint" />
          </mxGeometry>
        </mxCell>
        <mxCell id="RDxLEwMojuRbnxQG7RyW-46" value="uses a" style="shape=rhombus;perimeter=rhombusPerimeter;whiteSpace=wrap;html=1;align=center;" vertex="1" parent="1">
          <mxGeometry x="560" y="570" width="120" height="60" as="geometry" />
        </mxCell>
        <mxCell id="RDxLEwMojuRbnxQG7RyW-47" value="aircraft" style="whiteSpace=wrap;html=1;align=center;" vertex="1" parent="1">
          <mxGeometry x="360" y="580" width="100" height="40" as="geometry" />
        </mxCell>
        <mxCell id="RDxLEwMojuRbnxQG7RyW-48" value="" style="endArrow=ERoneToMany;startArrow=none;html=1;rounded=0;entryX=0.5;entryY=1;entryDx=0;entryDy=0;exitX=0.5;exitY=0;exitDx=0;exitDy=0;startFill=0;endFill=0;" edge="1" parent="1" source="RDxLEwMojuRbnxQG7RyW-46" target="RDxLEwMojuRbnxQG7RyW-24">
          <mxGeometry width="50" height="50" relative="1" as="geometry">
            <mxPoint x="520" y="510" as="sourcePoint" />
            <mxPoint x="520" y="560" as="targetPoint" />
          </mxGeometry>
        </mxCell>
        <mxCell id="RDxLEwMojuRbnxQG7RyW-49" value="" style="endArrow=ERmandOne;html=1;rounded=0;startArrow=none;startFill=0;endFill=0;exitX=0;exitY=0.5;exitDx=0;exitDy=0;entryX=1;entryY=0.5;entryDx=0;entryDy=0;" edge="1" parent="1" source="RDxLEwMojuRbnxQG7RyW-46" target="RDxLEwMojuRbnxQG7RyW-47">
          <mxGeometry relative="1" as="geometry">
            <mxPoint x="490" y="600" as="sourcePoint" />
            <mxPoint x="480" y="600" as="targetPoint" />
          </mxGeometry>
        </mxCell>
        <mxCell id="RDxLEwMojuRbnxQG7RyW-52" value="assigned to" style="shape=rhombus;perimeter=rhombusPerimeter;whiteSpace=wrap;html=1;align=center;" vertex="1" parent="1">
          <mxGeometry x="770" y="400" width="120" height="60" as="geometry" />
        </mxCell>
        <mxCell id="RDxLEwMojuRbnxQG7RyW-53" value="employee(pilot)" style="whiteSpace=wrap;html=1;align=center;" vertex="1" parent="1">
          <mxGeometry x="940" y="410" width="100" height="40" as="geometry" />
        </mxCell>
        <mxCell id="RDxLEwMojuRbnxQG7RyW-54" value="" style="endArrow=ERoneToMany;startArrow=none;html=1;rounded=0;entryX=1;entryY=0.5;entryDx=0;entryDy=0;exitX=0;exitY=0.5;exitDx=0;exitDy=0;startFill=0;endFill=0;" edge="1" parent="1" source="RDxLEwMojuRbnxQG7RyW-52" target="RDxLEwMojuRbnxQG7RyW-24">
          <mxGeometry width="50" height="50" relative="1" as="geometry">
            <mxPoint x="630" y="550" as="sourcePoint" />
            <mxPoint x="630" y="450" as="targetPoint" />
          </mxGeometry>
        </mxCell>
        <mxCell id="RDxLEwMojuRbnxQG7RyW-55" value="" style="endArrow=ERmandOne;html=1;rounded=0;startArrow=none;startFill=0;endFill=0;exitX=1;exitY=0.5;exitDx=0;exitDy=0;entryX=0;entryY=0.5;entryDx=0;entryDy=0;" edge="1" parent="1" source="RDxLEwMojuRbnxQG7RyW-52" target="RDxLEwMojuRbnxQG7RyW-53">
          <mxGeometry relative="1" as="geometry">
            <mxPoint x="630" y="610" as="sourcePoint" />
            <mxPoint x="630" y="650" as="targetPoint" />
          </mxGeometry>
        </mxCell>
        <mxCell id="RDxLEwMojuRbnxQG7RyW-57" value="" style="endArrow=ERoneToMany;startArrow=none;html=1;rounded=0;startFill=0;endFill=0;exitX=0.5;exitY=0;exitDx=0;exitDy=0;entryX=0.5;entryY=1;entryDx=0;entryDy=0;" edge="1" parent="1" source="RDxLEwMojuRbnxQG7RyW-58" target="RDxLEwMojuRbnxQG7RyW-47">
          <mxGeometry width="50" height="50" relative="1" as="geometry">
            <mxPoint x="940" y="570" as="sourcePoint" />
            <mxPoint x="460" y="640" as="targetPoint" />
          </mxGeometry>
        </mxCell>
        <mxCell id="RDxLEwMojuRbnxQG7RyW-58" value="have" style="shape=rhombus;perimeter=rhombusPerimeter;whiteSpace=wrap;html=1;align=center;" vertex="1" parent="1">
          <mxGeometry x="350" y="680" width="120" height="60" as="geometry" />
        </mxCell>
        <mxCell id="RDxLEwMojuRbnxQG7RyW-59" value="" style="endArrow=ERoneToMany;startArrow=none;html=1;rounded=0;startFill=0;endFill=0;exitX=1;exitY=0.5;exitDx=0;exitDy=0;entryX=0;entryY=0.5;entryDx=0;entryDy=0;" edge="1" parent="1" source="RDxLEwMojuRbnxQG7RyW-58" target="RDxLEwMojuRbnxQG7RyW-114">
          <mxGeometry width="50" height="50" relative="1" as="geometry">
            <mxPoint x="960" y="640" as="sourcePoint" />
            <mxPoint x="1000" y="700" as="targetPoint" />
          </mxGeometry>
        </mxCell>
        <mxCell id="RDxLEwMojuRbnxQG7RyW-60" value="payment" style="whiteSpace=wrap;html=1;align=center;rounded=0;" vertex="1" parent="1">
          <mxGeometry x="940" y="150" width="100" height="40" as="geometry" />
        </mxCell>
        <mxCell id="RDxLEwMojuRbnxQG7RyW-61" value="has a" style="shape=rhombus;perimeter=rhombusPerimeter;whiteSpace=wrap;html=1;align=center;" vertex="1" parent="1">
          <mxGeometry x="760" y="140" width="120" height="60" as="geometry" />
        </mxCell>
        <mxCell id="RDxLEwMojuRbnxQG7RyW-63" value="" style="endArrow=ERmandOne;startArrow=none;html=1;rounded=0;entryX=1;entryY=0.5;entryDx=0;entryDy=0;exitX=0;exitY=0.5;exitDx=0;exitDy=0;startFill=0;endFill=0;" edge="1" parent="1" source="RDxLEwMojuRbnxQG7RyW-61" target="RDxLEwMojuRbnxQG7RyW-18">
          <mxGeometry width="50" height="50" relative="1" as="geometry">
            <mxPoint x="630" y="410" as="sourcePoint" />
            <mxPoint x="630" y="350" as="targetPoint" />
          </mxGeometry>
        </mxCell>
        <mxCell id="RDxLEwMojuRbnxQG7RyW-64" value="" style="endArrow=none;startArrow=ERmandOne;html=1;rounded=0;entryX=1;entryY=0.5;entryDx=0;entryDy=0;exitX=0;exitY=0.5;exitDx=0;exitDy=0;startFill=0;endFill=0;" edge="1" parent="1" source="RDxLEwMojuRbnxQG7RyW-60" target="RDxLEwMojuRbnxQG7RyW-61">
          <mxGeometry width="50" height="50" relative="1" as="geometry">
            <mxPoint x="740" y="180" as="sourcePoint" />
            <mxPoint x="680" y="180" as="targetPoint" />
          </mxGeometry>
        </mxCell>
        <mxCell id="RDxLEwMojuRbnxQG7RyW-65" value="" style="endArrow=none;html=1;rounded=0;entryX=0;entryY=0.5;entryDx=0;entryDy=0;exitX=1;exitY=0.5;exitDx=0;exitDy=0;" edge="1" parent="1" source="RDxLEwMojuRbnxQG7RyW-66" target="RDxLEwMojuRbnxQG7RyW-41">
          <mxGeometry relative="1" as="geometry">
            <mxPoint x="-140" y="330" as="sourcePoint" />
            <mxPoint x="-70" y="340" as="targetPoint" />
          </mxGeometry>
        </mxCell>
        <mxCell id="RDxLEwMojuRbnxQG7RyW-66" value="airport_id" style="ellipse;whiteSpace=wrap;html=1;align=center;fontStyle=4;" vertex="1" parent="1">
          <mxGeometry x="-280" y="240" width="100" height="40" as="geometry" />
        </mxCell>
        <mxCell id="RDxLEwMojuRbnxQG7RyW-67" value="country" style="ellipse;whiteSpace=wrap;html=1;align=center;" vertex="1" parent="1">
          <mxGeometry x="-280" y="350" width="100" height="40" as="geometry" />
        </mxCell>
        <mxCell id="RDxLEwMojuRbnxQG7RyW-68" value="city" style="ellipse;whiteSpace=wrap;html=1;align=center;" vertex="1" parent="1">
          <mxGeometry x="-280" y="300" width="100" height="40" as="geometry" />
        </mxCell>
        <mxCell id="RDxLEwMojuRbnxQG7RyW-69" value="name" style="ellipse;whiteSpace=wrap;html=1;align=center;" vertex="1" parent="1">
          <mxGeometry x="-190" y="180" width="100" height="40" as="geometry" />
        </mxCell>
        <mxCell id="RDxLEwMojuRbnxQG7RyW-71" value="" style="endArrow=none;html=1;rounded=0;entryX=0;entryY=0.5;entryDx=0;entryDy=0;exitX=0.5;exitY=1;exitDx=0;exitDy=0;" edge="1" parent="1" source="RDxLEwMojuRbnxQG7RyW-69" target="RDxLEwMojuRbnxQG7RyW-41">
          <mxGeometry relative="1" as="geometry">
            <mxPoint x="-110" y="330" as="sourcePoint" />
            <mxPoint x="-50" y="330" as="targetPoint" />
          </mxGeometry>
        </mxCell>
        <mxCell id="RDxLEwMojuRbnxQG7RyW-72" value="" style="endArrow=none;html=1;rounded=0;entryX=1;entryY=0.5;entryDx=0;entryDy=0;exitX=0;exitY=0.5;exitDx=0;exitDy=0;" edge="1" parent="1" source="RDxLEwMojuRbnxQG7RyW-41" target="RDxLEwMojuRbnxQG7RyW-68">
          <mxGeometry relative="1" as="geometry">
            <mxPoint x="-90" y="280" as="sourcePoint" />
            <mxPoint x="-50" y="330" as="targetPoint" />
          </mxGeometry>
        </mxCell>
        <mxCell id="RDxLEwMojuRbnxQG7RyW-73" value="" style="endArrow=none;html=1;rounded=0;entryX=1;entryY=0;entryDx=0;entryDy=0;exitX=0;exitY=0.5;exitDx=0;exitDy=0;" edge="1" parent="1" source="RDxLEwMojuRbnxQG7RyW-41" target="RDxLEwMojuRbnxQG7RyW-67">
          <mxGeometry relative="1" as="geometry">
            <mxPoint x="-50" y="330" as="sourcePoint" />
            <mxPoint x="-120" y="350" as="targetPoint" />
          </mxGeometry>
        </mxCell>
        <mxCell id="RDxLEwMojuRbnxQG7RyW-75" value="passenger_id" style="ellipse;whiteSpace=wrap;html=1;align=center;fontStyle=4;" vertex="1" parent="1">
          <mxGeometry x="280" y="90" width="100" height="40" as="geometry" />
        </mxCell>
        <mxCell id="RDxLEwMojuRbnxQG7RyW-77" value="booking id" style="ellipse;whiteSpace=wrap;html=1;align=center;fontStyle=4;" vertex="1" parent="1">
          <mxGeometry x="425" y="80" width="100" height="40" as="geometry" />
        </mxCell>
        <mxCell id="RDxLEwMojuRbnxQG7RyW-78" value="passenger id" style="ellipse;whiteSpace=wrap;html=1;align=center;" vertex="1" parent="1">
          <mxGeometry x="500" y="40" width="100" height="40" as="geometry" />
        </mxCell>
        <mxCell id="RDxLEwMojuRbnxQG7RyW-79" value="" style="endArrow=none;html=1;rounded=0;exitX=1;exitY=0.5;exitDx=0;exitDy=0;entryX=0.5;entryY=0;entryDx=0;entryDy=0;" edge="1" parent="1" source="RDxLEwMojuRbnxQG7RyW-77" target="RDxLEwMojuRbnxQG7RyW-18">
          <mxGeometry relative="1" as="geometry">
            <mxPoint x="470" y="120" as="sourcePoint" />
            <mxPoint x="630" y="120" as="targetPoint" />
          </mxGeometry>
        </mxCell>
        <mxCell id="RDxLEwMojuRbnxQG7RyW-80" value="" style="endArrow=none;html=1;rounded=0;exitX=0.5;exitY=1;exitDx=0;exitDy=0;entryX=0.5;entryY=0;entryDx=0;entryDy=0;" edge="1" parent="1" source="RDxLEwMojuRbnxQG7RyW-78" target="RDxLEwMojuRbnxQG7RyW-18">
          <mxGeometry relative="1" as="geometry">
            <mxPoint x="520" y="100" as="sourcePoint" />
            <mxPoint x="630" y="160" as="targetPoint" />
          </mxGeometry>
        </mxCell>
        <mxCell id="RDxLEwMojuRbnxQG7RyW-81" value="flight&lt;span style=&quot;color: rgba(0, 0, 0, 0); font-family: monospace; font-size: 0px; text-align: start; text-wrap-mode: nowrap;&quot;&gt;%3CmxGraphModel%3E%3Croot%3E%3CmxCell%20id%3D%220%22%2F%3E%3CmxCell%20id%3D%221%22%20parent%3D%220%22%2F%3E%3CmxCell%20id%3D%222%22%20value%3D%22passenger%20id%22%20style%3D%22ellipse%3BwhiteSpace%3Dwrap%3Bhtml%3D1%3Balign%3Dcenter%3B%22%20vertex%3D%221%22%20parent%3D%221%22%3E%3CmxGeometry%20x%3D%22550%22%20y%3D%2240%22%20width%3D%22100%22%20height%3D%2240%22%20as%3D%22geometry%22%2F%3E%3C%2FmxCell%3E%3C%2Froot%3E%3C%2FmxGraphModel%3E&lt;/span&gt;&lt;span style=&quot;background-color: transparent; color: light-dark(rgb(0, 0, 0), rgb(255, 255, 255));&quot;&gt;&amp;nbsp;id&lt;/span&gt;" style="ellipse;whiteSpace=wrap;html=1;align=center;" vertex="1" parent="1">
          <mxGeometry x="630" y="40" width="100" height="40" as="geometry" />
        </mxCell>
        <mxCell id="RDxLEwMojuRbnxQG7RyW-82" value="seat_no" style="ellipse;whiteSpace=wrap;html=1;align=center;" vertex="1" parent="1">
          <mxGeometry x="660" y="210" width="100" height="40" as="geometry" />
        </mxCell>
        <mxCell id="RDxLEwMojuRbnxQG7RyW-83" value="status" style="ellipse;whiteSpace=wrap;html=1;align=center;" vertex="1" parent="1">
          <mxGeometry x="460" y="210" width="100" height="40" as="geometry" />
        </mxCell>
        <mxCell id="RDxLEwMojuRbnxQG7RyW-84" value="" style="endArrow=none;html=1;rounded=0;exitX=0.25;exitY=1;exitDx=0;exitDy=0;entryX=1;entryY=0;entryDx=0;entryDy=0;" edge="1" parent="1" source="RDxLEwMojuRbnxQG7RyW-18" target="RDxLEwMojuRbnxQG7RyW-83">
          <mxGeometry relative="1" as="geometry">
            <mxPoint x="320" y="290" as="sourcePoint" />
            <mxPoint x="480" y="290" as="targetPoint" />
          </mxGeometry>
        </mxCell>
        <mxCell id="RDxLEwMojuRbnxQG7RyW-85" value="" style="endArrow=none;html=1;rounded=0;exitX=0.42;exitY=1.025;exitDx=0;exitDy=0;entryX=0.5;entryY=0;entryDx=0;entryDy=0;exitPerimeter=0;" edge="1" parent="1" source="RDxLEwMojuRbnxQG7RyW-81" target="RDxLEwMojuRbnxQG7RyW-18">
          <mxGeometry relative="1" as="geometry">
            <mxPoint x="605" y="200" as="sourcePoint" />
            <mxPoint x="520" y="230" as="targetPoint" />
          </mxGeometry>
        </mxCell>
        <mxCell id="RDxLEwMojuRbnxQG7RyW-86" value="" style="endArrow=none;html=1;rounded=0;exitX=0.75;exitY=1;exitDx=0;exitDy=0;entryX=0;entryY=0;entryDx=0;entryDy=0;" edge="1" parent="1" source="RDxLEwMojuRbnxQG7RyW-18" target="RDxLEwMojuRbnxQG7RyW-82">
          <mxGeometry relative="1" as="geometry">
            <mxPoint x="605" y="200" as="sourcePoint" />
            <mxPoint x="520" y="230" as="targetPoint" />
          </mxGeometry>
        </mxCell>
        <mxCell id="RDxLEwMojuRbnxQG7RyW-87" value="" style="endArrow=none;html=1;rounded=0;exitX=0;exitY=0.5;exitDx=0;exitDy=0;entryX=0.5;entryY=0;entryDx=0;entryDy=0;" edge="1" parent="1" source="RDxLEwMojuRbnxQG7RyW-88" target="RDxLEwMojuRbnxQG7RyW-18">
          <mxGeometry relative="1" as="geometry">
            <mxPoint x="710" y="140" as="sourcePoint" />
            <mxPoint x="625" y="170" as="targetPoint" />
          </mxGeometry>
        </mxCell>
        <mxCell id="RDxLEwMojuRbnxQG7RyW-88" value="booking date" style="ellipse;whiteSpace=wrap;html=1;align=center;" vertex="1" parent="1">
          <mxGeometry x="700" y="80" width="100" height="40" as="geometry" />
        </mxCell>
        <mxCell id="RDxLEwMojuRbnxQG7RyW-89" value="&lt;u&gt;flight&lt;span style=&quot;color: rgba(0, 0, 0, 0); font-family: monospace; font-size: 0px; text-align: start; text-wrap-mode: nowrap;&quot;&gt;%3CmxGraphModel%3E%3Croot%3E%3CmxCell%20id%3D%220%22%2F%3E%3CmxCell%20id%3D%221%22%20parent%3D%220%22%2F%3E%3CmxCell%20id%3D%222%22%20value%3D%22passenger%20id%22%20style%3D%22ellipse%3BwhiteSpace%3Dwrap%3Bhtml%3D1%3Balign%3Dcenter%3B%22%20vertex%3D%221%22%20parent%3D%221%22%3E%3CmxGeometry%20x%3D%22550%22%20y%3D%2240%22%20width%3D%22100%22%20height%3D%2240%22%20as%3D%22geometry%22%2F%3E%3C%2FmxCell%3E%3C%2Froot%3E%3C%2FmxGraphModel%3E&lt;/span&gt;&lt;span style=&quot;background-color: transparent; color: light-dark(rgb(0, 0, 0), rgb(255, 255, 255));&quot;&gt;&amp;nbsp;id&lt;/span&gt;&lt;/u&gt;" style="ellipse;whiteSpace=wrap;html=1;align=center;" vertex="1" parent="1">
          <mxGeometry x="670" y="340" width="100" height="40" as="geometry" />
        </mxCell>
        <mxCell id="RDxLEwMojuRbnxQG7RyW-90" value="&lt;u&gt;aircraft_id&lt;/u&gt;" style="ellipse;whiteSpace=wrap;html=1;align=center;" vertex="1" parent="1">
          <mxGeometry x="450" y="340" width="100" height="40" as="geometry" />
        </mxCell>
        <mxCell id="RDxLEwMojuRbnxQG7RyW-91" value="&lt;u&gt;pilot_id&lt;/u&gt;" style="ellipse;whiteSpace=wrap;html=1;align=center;" vertex="1" parent="1">
          <mxGeometry x="460" y="460" width="100" height="40" as="geometry" />
        </mxCell>
        <mxCell id="RDxLEwMojuRbnxQG7RyW-92" value="&lt;u&gt;sechudule id&lt;/u&gt;" style="ellipse;whiteSpace=wrap;html=1;align=center;" vertex="1" parent="1">
          <mxGeometry x="660" y="460" width="100" height="40" as="geometry" />
        </mxCell>
        <mxCell id="RDxLEwMojuRbnxQG7RyW-93" value="" style="endArrow=none;html=1;rounded=0;entryX=1;entryY=0;entryDx=0;entryDy=0;exitX=0.5;exitY=1;exitDx=0;exitDy=0;" edge="1" parent="1" source="RDxLEwMojuRbnxQG7RyW-89" target="RDxLEwMojuRbnxQG7RyW-24">
          <mxGeometry relative="1" as="geometry">
            <mxPoint x="760" y="390" as="sourcePoint" />
            <mxPoint x="670" y="410" as="targetPoint" />
          </mxGeometry>
        </mxCell>
        <mxCell id="RDxLEwMojuRbnxQG7RyW-94" value="" style="endArrow=none;html=1;rounded=0;entryX=1;entryY=1;entryDx=0;entryDy=0;exitX=0.5;exitY=0;exitDx=0;exitDy=0;" edge="1" parent="1" source="RDxLEwMojuRbnxQG7RyW-92" target="RDxLEwMojuRbnxQG7RyW-24">
          <mxGeometry relative="1" as="geometry">
            <mxPoint x="740" y="390" as="sourcePoint" />
            <mxPoint x="680" y="420" as="targetPoint" />
          </mxGeometry>
        </mxCell>
        <mxCell id="RDxLEwMojuRbnxQG7RyW-95" value="" style="endArrow=none;html=1;rounded=0;entryX=0.5;entryY=1;entryDx=0;entryDy=0;exitX=0;exitY=0;exitDx=0;exitDy=0;" edge="1" parent="1" source="RDxLEwMojuRbnxQG7RyW-24" target="RDxLEwMojuRbnxQG7RyW-90">
          <mxGeometry relative="1" as="geometry">
            <mxPoint x="750" y="400" as="sourcePoint" />
            <mxPoint x="690" y="430" as="targetPoint" />
          </mxGeometry>
        </mxCell>
        <mxCell id="RDxLEwMojuRbnxQG7RyW-96" value="" style="endArrow=none;html=1;rounded=0;entryX=0;entryY=1;entryDx=0;entryDy=0;exitX=0.5;exitY=0;exitDx=0;exitDy=0;" edge="1" parent="1" source="RDxLEwMojuRbnxQG7RyW-91" target="RDxLEwMojuRbnxQG7RyW-24">
          <mxGeometry relative="1" as="geometry">
            <mxPoint x="760" y="410" as="sourcePoint" />
            <mxPoint x="700" y="440" as="targetPoint" />
          </mxGeometry>
        </mxCell>
        <mxCell id="RDxLEwMojuRbnxQG7RyW-97" value="&lt;u&gt;aircraft_id&lt;/u&gt;" style="ellipse;whiteSpace=wrap;html=1;align=center;" vertex="1" parent="1">
          <mxGeometry x="230" y="640" width="100" height="40" as="geometry" />
        </mxCell>
        <mxCell id="RDxLEwMojuRbnxQG7RyW-98" value="capacity" style="ellipse;whiteSpace=wrap;html=1;align=center;" vertex="1" parent="1">
          <mxGeometry x="360" y="500" width="100" height="40" as="geometry" />
        </mxCell>
        <mxCell id="RDxLEwMojuRbnxQG7RyW-99" value="model" style="ellipse;whiteSpace=wrap;html=1;align=center;" vertex="1" parent="1">
          <mxGeometry x="470" y="520" width="100" height="40" as="geometry" />
        </mxCell>
        <mxCell id="RDxLEwMojuRbnxQG7RyW-100" value="" style="endArrow=none;html=1;rounded=0;entryX=1;entryY=0;entryDx=0;entryDy=0;exitX=0;exitY=1;exitDx=0;exitDy=0;" edge="1" parent="1" source="RDxLEwMojuRbnxQG7RyW-47" target="RDxLEwMojuRbnxQG7RyW-97">
          <mxGeometry relative="1" as="geometry">
            <mxPoint x="715" y="720" as="sourcePoint" />
            <mxPoint x="645" y="690" as="targetPoint" />
          </mxGeometry>
        </mxCell>
        <mxCell id="RDxLEwMojuRbnxQG7RyW-101" value="" style="endArrow=none;html=1;rounded=0;exitX=0.5;exitY=0;exitDx=0;exitDy=0;entryX=0.5;entryY=1;entryDx=0;entryDy=0;" edge="1" parent="1" source="RDxLEwMojuRbnxQG7RyW-47" target="RDxLEwMojuRbnxQG7RyW-98">
          <mxGeometry relative="1" as="geometry">
            <mxPoint x="824" y="630" as="sourcePoint" />
            <mxPoint x="830" y="530" as="targetPoint" />
          </mxGeometry>
        </mxCell>
        <mxCell id="RDxLEwMojuRbnxQG7RyW-102" value="" style="endArrow=none;html=1;rounded=0;exitX=1;exitY=0;exitDx=0;exitDy=0;entryX=0;entryY=1;entryDx=0;entryDy=0;" edge="1" parent="1" source="RDxLEwMojuRbnxQG7RyW-47" target="RDxLEwMojuRbnxQG7RyW-99">
          <mxGeometry relative="1" as="geometry">
            <mxPoint x="800" y="640" as="sourcePoint" />
            <mxPoint x="950" y="680" as="targetPoint" />
          </mxGeometry>
        </mxCell>
        <mxCell id="RDxLEwMojuRbnxQG7RyW-103" value="&lt;u&gt;sechudule id&lt;/u&gt;" style="ellipse;whiteSpace=wrap;html=1;align=center;" vertex="1" parent="1">
          <mxGeometry x="-20" y="490" width="100" height="40" as="geometry" />
        </mxCell>
        <mxCell id="RDxLEwMojuRbnxQG7RyW-104" value="source_ap" style="ellipse;whiteSpace=wrap;html=1;align=center;" vertex="1" parent="1">
          <mxGeometry x="80" y="520" width="100" height="40" as="geometry" />
        </mxCell>
        <mxCell id="RDxLEwMojuRbnxQG7RyW-105" value="arrival_time" style="ellipse;whiteSpace=wrap;html=1;align=center;" vertex="1" parent="1">
          <mxGeometry x="-20" y="410" width="100" height="40" as="geometry" />
        </mxCell>
        <mxCell id="RDxLEwMojuRbnxQG7RyW-106" value="dest_ap" style="ellipse;whiteSpace=wrap;html=1;align=center;" vertex="1" parent="1">
          <mxGeometry x="190" y="520" width="100" height="40" as="geometry" />
        </mxCell>
        <mxCell id="RDxLEwMojuRbnxQG7RyW-107" value="dep_time" style="ellipse;whiteSpace=wrap;html=1;align=center;" vertex="1" parent="1">
          <mxGeometry y="340" width="100" height="40" as="geometry" />
        </mxCell>
        <mxCell id="RDxLEwMojuRbnxQG7RyW-108" value="" style="endArrow=none;html=1;rounded=0;exitX=1;exitY=0;exitDx=0;exitDy=0;entryX=0;entryY=1;entryDx=0;entryDy=0;" edge="1" parent="1" source="RDxLEwMojuRbnxQG7RyW-103" target="RDxLEwMojuRbnxQG7RyW-40">
          <mxGeometry relative="1" as="geometry">
            <mxPoint x="132.5" y="470" as="sourcePoint" />
            <mxPoint x="227.5" y="520" as="targetPoint" />
          </mxGeometry>
        </mxCell>
        <mxCell id="RDxLEwMojuRbnxQG7RyW-109" value="" style="endArrow=none;html=1;rounded=0;exitX=0.5;exitY=0;exitDx=0;exitDy=0;entryX=0.5;entryY=1;entryDx=0;entryDy=0;" edge="1" parent="1" source="RDxLEwMojuRbnxQG7RyW-104" target="RDxLEwMojuRbnxQG7RyW-40">
          <mxGeometry relative="1" as="geometry">
            <mxPoint x="40" y="530" as="sourcePoint" />
            <mxPoint x="190" y="460" as="targetPoint" />
          </mxGeometry>
        </mxCell>
        <mxCell id="RDxLEwMojuRbnxQG7RyW-110" value="" style="endArrow=none;html=1;rounded=0;exitX=0.5;exitY=0;exitDx=0;exitDy=0;entryX=0.5;entryY=1;entryDx=0;entryDy=0;" edge="1" parent="1" source="RDxLEwMojuRbnxQG7RyW-106" target="RDxLEwMojuRbnxQG7RyW-40">
          <mxGeometry relative="1" as="geometry">
            <mxPoint x="160" y="540" as="sourcePoint" />
            <mxPoint x="190" y="460" as="targetPoint" />
          </mxGeometry>
        </mxCell>
        <mxCell id="RDxLEwMojuRbnxQG7RyW-111" value="" style="endArrow=none;html=1;rounded=0;exitX=0;exitY=0.5;exitDx=0;exitDy=0;entryX=1;entryY=0.5;entryDx=0;entryDy=0;" edge="1" parent="1" source="RDxLEwMojuRbnxQG7RyW-40" target="RDxLEwMojuRbnxQG7RyW-105">
          <mxGeometry relative="1" as="geometry">
            <mxPoint x="280" y="540" as="sourcePoint" />
            <mxPoint x="190" y="460" as="targetPoint" />
          </mxGeometry>
        </mxCell>
        <mxCell id="RDxLEwMojuRbnxQG7RyW-112" value="" style="endArrow=none;html=1;rounded=0;exitX=0;exitY=0;exitDx=0;exitDy=0;entryX=1;entryY=1;entryDx=0;entryDy=0;" edge="1" parent="1" source="RDxLEwMojuRbnxQG7RyW-40" target="RDxLEwMojuRbnxQG7RyW-107">
          <mxGeometry relative="1" as="geometry">
            <mxPoint x="140" y="440" as="sourcePoint" />
            <mxPoint x="80" y="460" as="targetPoint" />
          </mxGeometry>
        </mxCell>
        <mxCell id="RDxLEwMojuRbnxQG7RyW-114" value="crew" style="whiteSpace=wrap;html=1;align=center;" vertex="1" parent="1">
          <mxGeometry x="780" y="690" width="100" height="40" as="geometry" />
        </mxCell>
        <mxCell id="RDxLEwMojuRbnxQG7RyW-116" value="&lt;u&gt;emoplyee_id&lt;/u&gt;" style="ellipse;whiteSpace=wrap;html=1;align=center;" vertex="1" parent="1">
          <mxGeometry x="950" y="310" width="100" height="40" as="geometry" />
        </mxCell>
        <mxCell id="RDxLEwMojuRbnxQG7RyW-117" value="name" style="ellipse;whiteSpace=wrap;html=1;align=center;" vertex="1" parent="1">
          <mxGeometry x="1070" y="470" width="100" height="40" as="geometry" />
        </mxCell>
        <mxCell id="RDxLEwMojuRbnxQG7RyW-118" value="phone no" style="ellipse;whiteSpace=wrap;html=1;align=center;" vertex="1" parent="1">
          <mxGeometry x="940" y="500" width="100" height="40" as="geometry" />
        </mxCell>
        <mxCell id="RDxLEwMojuRbnxQG7RyW-119" value="contact" style="ellipse;whiteSpace=wrap;html=1;align=center;" vertex="1" parent="1">
          <mxGeometry x="1070" y="350" width="100" height="40" as="geometry" />
        </mxCell>
        <mxCell id="RDxLEwMojuRbnxQG7RyW-120" value="" style="endArrow=none;html=1;rounded=0;entryX=0.5;entryY=0;entryDx=0;entryDy=0;" edge="1" parent="1" target="RDxLEwMojuRbnxQG7RyW-53">
          <mxGeometry relative="1" as="geometry">
            <mxPoint x="1000" y="350" as="sourcePoint" />
            <mxPoint x="680" y="420" as="targetPoint" />
          </mxGeometry>
        </mxCell>
        <mxCell id="RDxLEwMojuRbnxQG7RyW-121" value="" style="endArrow=none;html=1;rounded=0;entryX=1;entryY=0;entryDx=0;entryDy=0;exitX=0;exitY=1;exitDx=0;exitDy=0;" edge="1" parent="1" source="RDxLEwMojuRbnxQG7RyW-119" target="RDxLEwMojuRbnxQG7RyW-53">
          <mxGeometry relative="1" as="geometry">
            <mxPoint x="1000" y="360" as="sourcePoint" />
            <mxPoint x="1000" y="420" as="targetPoint" />
          </mxGeometry>
        </mxCell>
        <mxCell id="RDxLEwMojuRbnxQG7RyW-122" value="" style="endArrow=none;html=1;rounded=0;entryX=1;entryY=1;entryDx=0;entryDy=0;exitX=0;exitY=0;exitDx=0;exitDy=0;" edge="1" parent="1" source="RDxLEwMojuRbnxQG7RyW-117" target="RDxLEwMojuRbnxQG7RyW-53">
          <mxGeometry relative="1" as="geometry">
            <mxPoint x="1095" y="394" as="sourcePoint" />
            <mxPoint x="1050" y="420" as="targetPoint" />
          </mxGeometry>
        </mxCell>
        <mxCell id="RDxLEwMojuRbnxQG7RyW-123" value="" style="endArrow=none;html=1;rounded=0;entryX=0.5;entryY=1;entryDx=0;entryDy=0;exitX=0.5;exitY=0;exitDx=0;exitDy=0;" edge="1" parent="1" source="RDxLEwMojuRbnxQG7RyW-118" target="RDxLEwMojuRbnxQG7RyW-53">
          <mxGeometry relative="1" as="geometry">
            <mxPoint x="1095" y="486" as="sourcePoint" />
            <mxPoint x="1050" y="460" as="targetPoint" />
          </mxGeometry>
        </mxCell>
        <mxCell id="RDxLEwMojuRbnxQG7RyW-124" value="booking id" style="ellipse;whiteSpace=wrap;html=1;align=center;fontStyle=4;" vertex="1" parent="1">
          <mxGeometry x="940" y="60" width="100" height="40" as="geometry" />
        </mxCell>
        <mxCell id="RDxLEwMojuRbnxQG7RyW-125" value="payment id" style="ellipse;whiteSpace=wrap;html=1;align=center;fontStyle=4;" vertex="1" parent="1">
          <mxGeometry x="1060" y="100" width="100" height="40" as="geometry" />
        </mxCell>
        <mxCell id="RDxLEwMojuRbnxQG7RyW-126" value="payment_date" style="ellipse;whiteSpace=wrap;html=1;align=center;" vertex="1" parent="1">
          <mxGeometry x="1070" y="190" width="100" height="40" as="geometry" />
        </mxCell>
        <mxCell id="RDxLEwMojuRbnxQG7RyW-127" value="method" style="ellipse;whiteSpace=wrap;html=1;align=center;" vertex="1" parent="1">
          <mxGeometry x="940" y="230" width="100" height="40" as="geometry" />
        </mxCell>
        <mxCell id="RDxLEwMojuRbnxQG7RyW-128" value="amount" style="ellipse;whiteSpace=wrap;html=1;align=center;" vertex="1" parent="1">
          <mxGeometry x="840" y="90" width="100" height="40" as="geometry" />
        </mxCell>
        <mxCell id="RDxLEwMojuRbnxQG7RyW-129" value="" style="endArrow=none;html=1;rounded=0;entryX=0.5;entryY=0;entryDx=0;entryDy=0;exitX=0.5;exitY=1;exitDx=0;exitDy=0;" edge="1" parent="1" source="RDxLEwMojuRbnxQG7RyW-124" target="RDxLEwMojuRbnxQG7RyW-60">
          <mxGeometry relative="1" as="geometry">
            <mxPoint x="1090" y="-10" as="sourcePoint" />
            <mxPoint x="1086" y="321" as="targetPoint" />
          </mxGeometry>
        </mxCell>
        <mxCell id="RDxLEwMojuRbnxQG7RyW-130" value="" style="endArrow=none;html=1;rounded=0;entryX=0.5;entryY=0;entryDx=0;entryDy=0;exitX=0.5;exitY=1;exitDx=0;exitDy=0;" edge="1" parent="1" source="RDxLEwMojuRbnxQG7RyW-60" target="RDxLEwMojuRbnxQG7RyW-127">
          <mxGeometry relative="1" as="geometry">
            <mxPoint x="1010" y="370" as="sourcePoint" />
            <mxPoint x="1010" y="430" as="targetPoint" />
          </mxGeometry>
        </mxCell>
        <mxCell id="RDxLEwMojuRbnxQG7RyW-131" value="" style="endArrow=none;html=1;rounded=0;entryX=0.25;entryY=0;entryDx=0;entryDy=0;exitX=1;exitY=1;exitDx=0;exitDy=0;" edge="1" parent="1" source="RDxLEwMojuRbnxQG7RyW-128" target="RDxLEwMojuRbnxQG7RyW-60">
          <mxGeometry relative="1" as="geometry">
            <mxPoint x="1020" y="380" as="sourcePoint" />
            <mxPoint x="1020" y="440" as="targetPoint" />
          </mxGeometry>
        </mxCell>
        <mxCell id="RDxLEwMojuRbnxQG7RyW-132" value="" style="endArrow=none;html=1;rounded=0;entryX=0.75;entryY=0;entryDx=0;entryDy=0;exitX=0;exitY=0.5;exitDx=0;exitDy=0;" edge="1" parent="1" source="RDxLEwMojuRbnxQG7RyW-125" target="RDxLEwMojuRbnxQG7RyW-60">
          <mxGeometry relative="1" as="geometry">
            <mxPoint x="1030" y="390" as="sourcePoint" />
            <mxPoint x="1030" y="450" as="targetPoint" />
          </mxGeometry>
        </mxCell>
        <mxCell id="RDxLEwMojuRbnxQG7RyW-133" value="" style="endArrow=none;html=1;rounded=0;entryX=0.75;entryY=1;entryDx=0;entryDy=0;exitX=0;exitY=0.5;exitDx=0;exitDy=0;" edge="1" parent="1" source="RDxLEwMojuRbnxQG7RyW-126" target="RDxLEwMojuRbnxQG7RyW-60">
          <mxGeometry relative="1" as="geometry">
            <mxPoint x="1070" y="130" as="sourcePoint" />
            <mxPoint x="1025" y="160" as="targetPoint" />
          </mxGeometry>
        </mxCell>
        <mxCell id="RDxLEwMojuRbnxQG7RyW-134" value="&lt;u&gt;pilot_id&lt;/u&gt;" style="ellipse;whiteSpace=wrap;html=1;align=center;" vertex="1" parent="1">
          <mxGeometry x="840" y="340" width="100" height="40" as="geometry" />
        </mxCell>
        <mxCell id="RDxLEwMojuRbnxQG7RyW-135" value="" style="endArrow=none;html=1;rounded=0;entryX=0.25;entryY=0;entryDx=0;entryDy=0;exitX=1;exitY=1;exitDx=0;exitDy=0;" edge="1" parent="1" source="RDxLEwMojuRbnxQG7RyW-134" target="RDxLEwMojuRbnxQG7RyW-53">
          <mxGeometry relative="1" as="geometry">
            <mxPoint x="1010" y="360" as="sourcePoint" />
            <mxPoint x="1000" y="420" as="targetPoint" />
          </mxGeometry>
        </mxCell>
        <mxCell id="RDxLEwMojuRbnxQG7RyW-136" value="&lt;u&gt;emoplyee_id&lt;/u&gt;" style="ellipse;whiteSpace=wrap;html=1;align=center;" vertex="1" parent="1">
          <mxGeometry x="780" y="600" width="100" height="40" as="geometry" />
        </mxCell>
        <mxCell id="RDxLEwMojuRbnxQG7RyW-137" value="&lt;u&gt;aircraft_id&lt;/u&gt;" style="ellipse;whiteSpace=wrap;html=1;align=center;" vertex="1" parent="1">
          <mxGeometry x="900" y="630" width="100" height="40" as="geometry" />
        </mxCell>
        <mxCell id="RDxLEwMojuRbnxQG7RyW-138" value="" style="endArrow=none;html=1;rounded=0;entryX=0.5;entryY=1;entryDx=0;entryDy=0;exitX=0.5;exitY=0;exitDx=0;exitDy=0;" edge="1" parent="1" source="RDxLEwMojuRbnxQG7RyW-114" target="RDxLEwMojuRbnxQG7RyW-136">
          <mxGeometry relative="1" as="geometry">
            <mxPoint x="935" y="384" as="sourcePoint" />
            <mxPoint x="975" y="420" as="targetPoint" />
          </mxGeometry>
        </mxCell>
        <mxCell id="RDxLEwMojuRbnxQG7RyW-139" value="" style="endArrow=none;html=1;rounded=0;entryX=0;entryY=0.5;entryDx=0;entryDy=0;exitX=0.5;exitY=0;exitDx=0;exitDy=0;" edge="1" parent="1" source="RDxLEwMojuRbnxQG7RyW-114" target="RDxLEwMojuRbnxQG7RyW-137">
          <mxGeometry relative="1" as="geometry">
            <mxPoint x="840" y="700" as="sourcePoint" />
            <mxPoint x="840" y="650" as="targetPoint" />
          </mxGeometry>
        </mxCell>
        <mxCell id="RDxLEwMojuRbnxQG7RyW-141" value="1" style="text;html=1;align=center;verticalAlign=middle;resizable=0;points=[];autosize=1;strokeColor=none;fillColor=none;" vertex="1" parent="1">
          <mxGeometry x="345" y="138" width="30" height="30" as="geometry" />
        </mxCell>
        <mxCell id="RDxLEwMojuRbnxQG7RyW-142" value="M" style="text;html=1;align=center;verticalAlign=middle;resizable=0;points=[];autosize=1;strokeColor=none;fillColor=none;" vertex="1" parent="1">
          <mxGeometry x="465" y="138" width="30" height="30" as="geometry" />
        </mxCell>
        <mxCell id="RDxLEwMojuRbnxQG7RyW-143" value="1" style="text;html=1;align=center;verticalAlign=middle;resizable=0;points=[];autosize=1;strokeColor=none;fillColor=none;" vertex="1" parent="1">
          <mxGeometry x="745" y="138" width="30" height="30" as="geometry" />
        </mxCell>
        <mxCell id="RDxLEwMojuRbnxQG7RyW-144" value="1" style="text;html=1;align=center;verticalAlign=middle;resizable=0;points=[];autosize=1;strokeColor=none;fillColor=none;" vertex="1" parent="1">
          <mxGeometry x="865" y="138" width="30" height="30" as="geometry" />
        </mxCell>
        <mxCell id="RDxLEwMojuRbnxQG7RyW-145" value="1" style="text;html=1;align=center;verticalAlign=middle;resizable=0;points=[];autosize=1;strokeColor=none;fillColor=none;" vertex="1" parent="1">
          <mxGeometry x="875" y="400" width="30" height="30" as="geometry" />
        </mxCell>
        <mxCell id="RDxLEwMojuRbnxQG7RyW-146" value="M" style="text;html=1;align=center;verticalAlign=middle;resizable=0;points=[];autosize=1;strokeColor=none;fillColor=none;" vertex="1" parent="1">
          <mxGeometry x="745" y="400" width="30" height="30" as="geometry" />
        </mxCell>
        <mxCell id="RDxLEwMojuRbnxQG7RyW-147" value="1" style="text;html=1;align=center;verticalAlign=middle;resizable=0;points=[];autosize=1;strokeColor=none;fillColor=none;" vertex="1" parent="1">
          <mxGeometry x="430" y="400" width="30" height="30" as="geometry" />
        </mxCell>
        <mxCell id="RDxLEwMojuRbnxQG7RyW-148" value="1" style="text;html=1;align=center;verticalAlign=middle;resizable=0;points=[];autosize=1;strokeColor=none;fillColor=none;" vertex="1" parent="1">
          <mxGeometry x="300" y="400" width="30" height="30" as="geometry" />
        </mxCell>
        <mxCell id="RDxLEwMojuRbnxQG7RyW-149" value="M" style="text;html=1;align=center;verticalAlign=middle;resizable=0;points=[];autosize=1;strokeColor=none;fillColor=none;" vertex="1" parent="1">
          <mxGeometry x="190" y="345" width="30" height="30" as="geometry" />
        </mxCell>
        <mxCell id="RDxLEwMojuRbnxQG7RyW-150" value="1" style="text;html=1;align=center;verticalAlign=middle;resizable=0;points=[];autosize=1;strokeColor=none;fillColor=none;" vertex="1" parent="1">
          <mxGeometry x="105" y="288" width="30" height="30" as="geometry" />
        </mxCell>
        <mxCell id="RDxLEwMojuRbnxQG7RyW-151" value="M" style="text;html=1;align=center;verticalAlign=middle;resizable=0;points=[];autosize=1;strokeColor=none;fillColor=none;" vertex="1" parent="1">
          <mxGeometry x="630" y="550" width="30" height="30" as="geometry" />
        </mxCell>
        <mxCell id="RDxLEwMojuRbnxQG7RyW-152" value="1" style="text;html=1;align=center;verticalAlign=middle;resizable=0;points=[];autosize=1;strokeColor=none;fillColor=none;" vertex="1" parent="1">
          <mxGeometry x="540" y="605" width="30" height="30" as="geometry" />
        </mxCell>
        <mxCell id="RDxLEwMojuRbnxQG7RyW-153" value="M" style="text;html=1;align=center;verticalAlign=middle;resizable=0;points=[];autosize=1;strokeColor=none;fillColor=none;" vertex="1" parent="1">
          <mxGeometry x="410" y="660" width="30" height="30" as="geometry" />
        </mxCell>
        <mxCell id="RDxLEwMojuRbnxQG7RyW-154" value="M" style="text;html=1;align=center;verticalAlign=middle;resizable=0;points=[];autosize=1;strokeColor=none;fillColor=none;" vertex="1" parent="1">
          <mxGeometry x="460" y="710" width="30" height="30" as="geometry" />
        </mxCell>
        <mxCell id="RDxLEwMojuRbnxQG7RyW-155" value="M" style="text;html=1;align=center;verticalAlign=middle;resizable=0;points=[];autosize=1;strokeColor=none;fillColor=none;" vertex="1" parent="1">
          <mxGeometry x="615" y="258" width="30" height="30" as="geometry" />
        </mxCell>
        <mxCell id="RDxLEwMojuRbnxQG7RyW-156" value="1" style="text;html=1;align=center;verticalAlign=middle;resizable=0;points=[];autosize=1;strokeColor=none;fillColor=none;" vertex="1" parent="1">
          <mxGeometry x="615" y="340" width="30" height="30" as="geometry" />
        </mxCell>
      </root>
    </mxGraphModel>
  </diagram>
</mxfile>
